<?xml version="1.0" encoding="UTF-8"?>
<!-- Generator: visioncortex VTracer 0.6.4 -->
<svg version="1.1" xmlns="http://www.w3.org/2000/svg" width="674" height="670">
<path d="M0 0 C1.75 -0.01 1.75 -0.01 3.53 -0.02 C20.53 -0.08 36.98 1.03 53.75 3.88 C55.16 4.11 55.16 4.11 56.59 4.36 C71.88 7 71.88 7 77.75 9.5 C80.2 10 82.66 10.46 85.12 10.88 C119.82 17.18 156.27 32.77 185.33 52.83 C187.36 54.23 189.4 55.59 191.45 56.95 C192.12 57.39 192.78 57.83 193.47 58.28 C194.79 59.16 196.11 60.03 197.44 60.9 C201.02 63.28 204.4 65.79 207.75 68.5 C208.86 69.29 209.97 70.08 211.08 70.86 C221.02 77.96 229.7 86.06 238.31 94.69 C238.88 95.25 239.45 95.82 240.03 96.4 C241.66 98.03 243.27 99.66 244.88 101.29 C245.37 101.79 245.86 102.28 246.37 102.79 C249.75 106.27 249.75 106.27 249.75 108.5 C250.41 108.5 251.07 108.5 251.75 108.5 C259.14 115.23 264.87 124.46 270.75 132.5 C271.27 133.21 271.8 133.93 272.34 134.67 C278.42 143.01 284.08 151.39 289.03 160.45 C290.72 163.54 290.72 163.54 292.76 166.49 C296.31 171.86 298.95 177.72 301.75 183.5 C302.04 184.1 302.34 184.7 302.64 185.32 C319.34 219.62 329.66 256.84 333.47 294.78 C333.63 296.35 333.8 297.91 334 299.47 C334.68 305.05 334.92 310.55 334.95 316.17 C334.96 317.07 334.97 317.98 334.97 318.91 C335.26 365.63 329.94 411.66 311.19 454.94 C310.88 455.66 310.58 456.37 310.27 457.12 C307.98 462.38 307.98 462.38 305.75 463.5 C305.25 465.69 305.25 465.69 304.94 468.25 C304.05 473.26 302.39 474.95 298.75 478.5 C297.89 481.01 297.26 483.5 296.72 486.1 C295.75 488.5 295.75 488.5 293.3 490.42 C290.16 492.98 289.58 494.92 288.38 498.75 C286.48 504.09 284.45 507.67 280.4 511.62 C278.58 513.53 278.58 513.53 277.31 516.42 C275.69 519.63 273.92 521.73 271.44 524.31 C268.57 527.39 266.08 530.36 263.88 533.94 C261.07 538.39 257.49 541.86 253.72 545.47 C250.43 548.67 248.15 551.82 245.93 555.79 C244.18 558.32 241.93 559.71 239.38 561.36 C237 563.03 235.48 565.19 233.75 567.5 C230.95 570.51 228.59 572.93 224.75 574.5 C224.75 575.16 224.75 575.82 224.75 576.5 C223.97 576.75 223.18 577 222.38 577.25 C219.65 578.2 219.65 578.2 218.91 580.31 C217.34 583.27 215.25 584.75 212.62 586.81 C209.2 589.54 205.82 592.27 202.56 595.19 C187.63 608.34 169.54 617.77 152.25 627.44 C151.44 627.9 150.63 628.36 149.79 628.83 C145.31 631.31 140.98 633.19 136.09 634.7 C133.49 635.59 131.08 636.7 128.6 637.87 C121.97 640.95 115.12 643.28 108.19 645.56 C107.53 645.78 106.87 646 106.19 646.23 C95.82 649.65 85.5 652.54 74.75 654.5 C73.32 654.77 71.89 655.05 70.46 655.32 C67.84 655.83 65.22 656.31 62.59 656.79 C60.58 657.16 58.58 657.54 56.58 657.97 C50.28 659.31 44.05 660.09 37.63 660.6 C36.59 660.69 35.55 660.77 34.48 660.86 C23.22 661.7 11.98 661.9 0.69 661.88 C-0.37 661.87 -1.43 661.87 -2.52 661.87 C-30.52 661.81 -62.09 660.28 -88.25 649.5 C-90.14 649.01 -92.04 648.56 -93.94 648.12 C-98.71 646.96 -103.1 645.48 -107.62 643.57 C-110.46 642.41 -113.34 641.47 -116.25 640.5 C-143.75 630.77 -171.05 616.23 -194.25 598.5 C-195.65 597.46 -197.04 596.42 -198.44 595.38 C-199.07 594.9 -199.7 594.42 -200.36 593.93 C-201.64 592.96 -202.94 592 -204.24 591.04 C-214.09 583.79 -214.09 583.79 -218.25 579.5 C-218.25 578.84 -218.25 578.18 -218.25 577.5 C-218.79 577.28 -219.33 577.06 -219.88 576.83 C-223.05 575.05 -225.55 572.66 -228.19 570.19 C-228.7 569.71 -229.21 569.24 -229.74 568.75 C-240.45 558.81 -250.3 548.05 -259.25 536.5 C-259.95 535.64 -260.65 534.77 -261.37 533.88 C-263.25 531.5 -263.25 531.5 -264.81 528.88 C-266.15 526.67 -267.43 525.29 -269.25 523.5 C-274.95 516.77 -279.4 509.05 -283.99 501.55 C-285.15 499.67 -286.32 497.8 -287.51 495.94 C-298.38 478.62 -306.52 459.76 -313.25 440.5 C-313.55 439.64 -313.86 438.77 -314.17 437.88 C-338.46 367.91 -338.54 283.64 -311.25 214.5 C-310.97 213.77 -310.69 213.03 -310.4 212.27 C-306.22 201.4 -301.72 190.83 -296.31 180.51 C-295.18 178.36 -294.07 176.21 -292.96 174.05 C-289.09 166.57 -285.09 159.4 -280.25 152.5 C-279.69 151.64 -279.14 150.78 -278.56 149.89 C-273.57 142.18 -268.09 134.91 -262.45 127.65 C-260.54 125.19 -258.67 122.72 -256.86 120.19 C-249.66 110.31 -241 101.98 -232.27 93.47 C-230.65 91.89 -229.05 90.29 -227.45 88.69 C-222.09 83.36 -216.57 78.66 -210.25 74.5 C-209.56 73.77 -208.87 73.04 -208.15 72.29 C-204.56 68.63 -200.3 65.91 -196.06 63.06 C-195.22 62.49 -194.37 61.91 -193.5 61.32 C-188.45 57.92 -183.37 54.63 -178.06 51.65 C-176.23 50.59 -176.23 50.59 -174.93 49.11 C-172.42 46.7 -169.45 45.12 -166.44 43.44 C-165.75 43.05 -165.06 42.66 -164.35 42.27 C-155.74 37.53 -146.76 33.57 -137.77 29.61 C-136.13 28.89 -134.49 28.15 -132.86 27.41 C-128.16 25.27 -123.49 23.5 -118.56 21.94 C-115 20.81 -111.69 19.73 -108.38 18.01 C-104.34 16.06 -100.27 15.02 -95.94 13.94 C-95.13 13.73 -94.33 13.52 -93.5 13.31 C-88.11 11.92 -82.69 10.69 -77.25 9.5 C-75.88 9.19 -74.5 8.88 -73.13 8.57 C-59.61 5.58 -45.96 3.41 -32.25 1.5 C-30.43 1.24 -30.43 1.24 -28.56 0.97 C-19.12 -0.19 -9.5 0.07 0 0 Z " fill="#3388FE" transform="translate(337.25,7.5)"/>
<path d="M0 0 C4.81 3.35 6.76 10.07 8.52 15.41 C8.97 16.75 9.42 18.09 9.87 19.43 C10.33 20.84 10.79 22.24 11.26 23.65 C14.64 33.81 18.07 43.84 22.81 53.48 C25.16 58.54 25.6 62.97 24.01 68.4 C22.36 70.09 20.69 71.75 19.01 73.4 C18.07 75.97 17.4 78.52 16.78 81.19 C16.01 83.4 16.01 83.4 13.01 85.4 C8.57 85.17 6.22 83.34 3.01 80.4 C1.57 77.8 1.57 77.8 0.45 74.9 C-0.17 73.33 -0.17 73.33 -0.79 71.73 C-2.62 66.65 -4.36 61.54 -5.99 56.4 C-7.81 59.12 -9.15 61.71 -10.53 64.67 C-11.03 65.72 -11.52 66.76 -12.03 67.84 C-12.81 69.51 -12.81 69.51 -13.62 71.21 C-26.89 99.07 -44.29 123.89 -65.29 146.48 C-67.8 149.19 -70.24 151.94 -72.68 154.71 C-75.9 158.3 -79.24 161.54 -82.93 164.64 C-85.16 166.54 -87.29 168.53 -89.43 170.52 C-107.66 186.89 -128.63 200.51 -149.99 212.4 C-150.74 212.82 -151.49 213.23 -152.26 213.66 C-167.33 221.98 -182.8 228.74 -199.05 234.4 C-199.9 234.7 -200.74 235 -201.61 235.32 C-207.34 237.24 -212.95 238.33 -218.99 237.4 C-222.11 235.7 -224.38 233.62 -225.99 230.4 C-226.56 223.5 -226.56 223.5 -224.62 219.71 C-216.96 212.97 -205.91 209.81 -196.56 206.06 C-187.58 202.39 -181.91 199.15 -176.8 190.84 C-176.34 190.09 -175.87 189.35 -175.39 188.58 C-170.03 179.99 -164.94 171.24 -159.99 162.4 C-159.59 161.68 -159.18 160.95 -158.77 160.21 C-152.67 149.27 -147.67 138.01 -142.99 126.4 C-138.15 126.95 -134.02 127.96 -129.5 129.76 C-128.3 130.24 -127.1 130.71 -125.86 131.2 C-124.61 131.7 -123.37 132.21 -122.12 132.71 C-120.88 133.2 -119.64 133.69 -118.39 134.19 C-112.45 136.55 -106.58 138.95 -100.85 141.82 C-98.47 142.56 -97.3 142.31 -94.99 141.4 C-93.33 140.17 -93.33 140.17 -91.82 138.59 C-90.95 137.72 -90.95 137.72 -90.07 136.84 C-89.46 136.22 -88.86 135.6 -88.24 134.96 C-87.62 134.33 -87 133.71 -86.37 133.06 C-81.54 128.11 -77.12 122.96 -72.99 117.4 C-77.97 113.36 -83.82 111.26 -89.68 108.77 C-90.29 108.51 -90.91 108.25 -91.54 107.98 C-104.17 102.59 -117 97.86 -129.99 93.4 C-129.36 88.35 -128.34 83.54 -126.99 78.63 C-126.58 77.1 -126.16 75.57 -125.75 74.04 C-125.54 73.25 -125.32 72.45 -125.1 71.62 C-119.88 52.33 -115.3 32.92 -110.99 13.4 C-106.73 15.06 -102.74 17.04 -98.74 19.27 C-97.71 19.85 -97.71 19.85 -96.66 20.43 C-90.29 24.04 -84.42 28.25 -78.67 32.76 C-78 33.27 -77.33 33.77 -76.64 34.29 C-76.05 34.74 -75.47 35.2 -74.87 35.67 C-72.93 36.64 -72.93 36.64 -70.58 35.72 C-67.94 34.37 -65.43 32.93 -62.92 31.34 C-61.95 30.73 -60.98 30.13 -59.98 29.5 C-58.96 28.85 -57.93 28.19 -56.87 27.52 C-55.8 26.85 -54.74 26.18 -53.64 25.49 C-47.82 21.83 -42.02 18.15 -36.23 14.46 C-33.19 12.53 -30.15 10.62 -27.09 8.71 C-25.72 7.85 -24.34 6.98 -22.97 6.11 C-9.02 -2.72 -9.02 -2.72 0 0 Z " fill="#FDFEFF" transform="translate(616.9921875,412.6015625)"/>
<path d="M0 0 C1.15 0.53 2.31 1.07 3.5 1.62 C26.23 12.04 49.6 22.19 74 28 C72.81 34.28 71.43 40.49 69.89 46.7 C60.07 86.48 56.46 126.02 55 167 C16.39 167 -22.22 167 -62 167 C-62 130.08 -51.77 93.59 -37 60 C-36.51 58.87 -36.51 58.87 -36.02 57.73 C-28.94 41.45 -19.83 26.07 -9 12 C-8.17 10.89 -7.34 9.79 -6.51 8.68 C-4.35 5.78 -2.18 2.89 0 0 Z " fill="#FEFEFF" transform="translate(102,154)"/>
<path d="M0 0 C9.24 0 18.48 0 28 0 C28 9.24 28 18.48 28 28 C53.74 28 79.48 28 106 28 C106 36.25 106 44.5 106 53 C96.1 53 86.2 53 76 53 C75.34 55.97 74.68 58.94 74 62 C73.49 63.59 72.95 65.17 72.34 66.73 C72.02 67.52 71.71 68.32 71.39 69.14 C70.89 70.37 70.89 70.37 70.38 71.62 C70.02 72.49 69.67 73.36 69.31 74.26 C62.9 89.75 54.47 103.74 43.83 116.73 C41.41 119.73 39.2 122.84 37 126 C37.54 126.24 38.08 126.49 38.63 126.74 C40.97 127.98 43.06 129.43 45.21 130.97 C53.33 136.7 62 141.33 70.81 145.88 C71.44 146.2 72.06 146.52 72.71 146.86 C79.99 150.63 87.3 154.15 95 157 C94.38 162.39 93.12 167.28 91.44 172.44 C91.2 173.17 90.97 173.9 90.73 174.65 C90.16 176.44 89.58 178.22 89 180 C84.32 181.52 81.26 180.25 77 178.25 C76.31 177.94 75.62 177.62 74.91 177.3 C72.6 176.22 70.3 175.12 68 174 C67.18 173.6 66.36 173.2 65.51 172.79 C51.53 165.94 37.94 158.14 25.86 148.24 C22.06 144.97 22.06 144.97 17.36 143.89 C14.45 145.26 11.95 146.86 9.31 148.69 C-8.89 160.82 -28.94 170.37 -49 179 C-50.26 179.59 -50.26 179.59 -51.55 180.19 C-54.3 181.1 -55.4 181.24 -58 180 C-59.37 178.19 -59.37 178.19 -60.58 175.85 C-61.02 175.01 -61.45 174.17 -61.91 173.3 C-62.35 172.42 -62.79 171.54 -63.25 170.62 C-63.94 169.31 -63.94 169.31 -64.64 167.97 C-68 161.43 -68 161.43 -68 158 C-67.18 157.65 -67.18 157.65 -66.34 157.3 C-44.43 148.04 -22.69 138.53 -3 125 C-3.82 124.03 -4.65 123.06 -5.5 122.06 C-6.05 121.41 -6.6 120.77 -7.17 120.1 C-8.37 118.73 -9.58 117.38 -10.83 116.06 C-26.88 98.87 -37.01 76.85 -45 55 C-55.56 55 -66.12 55 -77 55 C-77 46.09 -77 37.18 -77 28 C-51.59 28 -26.18 28 0 28 C0 18.76 0 9.52 0 0 Z " fill="#FDFEFF" transform="translate(184,363)"/>
<path d="M0 0 C1.95 0.29 3.89 0.67 5.82 1.07 C7.69 1.45 7.69 1.45 9.59 1.84 C10.26 1.98 10.92 2.12 11.61 2.26 C43.96 8.91 75.88 11.26 109 13 C109 51.94 109 90.88 109 131 C66.76 130.67 24.52 130.34 -19 130 C-17.82 98.12 -17.82 98.12 -16.31 84.56 C-16.23 83.78 -16.14 83 -16.06 82.19 C-7.95 7.95 -7.95 7.95 0 0 Z " fill="#FEFEFF" transform="translate(211,191)"/>
<path d="M0 0 C0.92 0 1.84 0.01 2.79 0.01 C4.98 0.03 7.18 0.04 9.38 0.06 C9.69 0.9 10 1.73 10.31 2.59 C11.83 6.69 13.35 10.78 14.88 14.88 C15.16 15.65 15.45 16.43 15.75 17.23 C19.2 26.51 22.64 35.79 26.1 45.06 C34.46 67.52 42.8 90 51.12 112.48 C54.9 122.7 58.69 132.92 62.5 143.13 C63.12 144.78 63.73 146.44 64.35 148.09 C65.46 151.06 66.57 154.04 67.68 157.01 C68.17 158.31 68.65 159.61 69.14 160.91 C69.55 162.02 69.96 163.12 70.39 164.25 C71.38 167.06 71.38 167.06 72.38 171.06 C61.15 171.06 49.93 171.06 38.38 171.06 C36.38 165.71 34.38 160.35 32.39 154.99 C31.72 153.17 31.04 151.35 30.36 149.52 C29.38 146.91 28.41 144.29 27.44 141.67 C27.13 140.85 26.83 140.04 26.51 139.2 C26.23 138.44 25.95 137.67 25.66 136.89 C25.41 136.22 25.16 135.55 24.91 134.87 C24.38 133.06 24.38 133.06 24.38 130.06 C1.93 130.06 -20.5 130.06 -43.62 130.06 C-44.62 133.36 -45.61 136.66 -46.62 140.06 C-47.57 142.67 -48.53 145.25 -49.54 147.82 C-49.78 148.42 -50.01 149.02 -50.25 149.64 C-51.1 151.82 -51.96 154 -52.81 156.19 C-54.73 161.1 -56.65 166 -58.62 171.06 C-69.85 171.06 -81.06 171.06 -92.62 171.06 C-90.66 164.53 -88.65 158.19 -86.24 151.84 C-85.91 150.96 -85.58 150.08 -85.24 149.18 C-84.14 146.27 -83.04 143.35 -81.94 140.44 C-81.15 138.34 -80.36 136.24 -79.56 134.14 C-77.84 129.57 -76.12 125 -74.4 120.43 C-71.5 112.74 -68.62 105.05 -65.73 97.35 C-65.36 96.35 -65.36 96.35 -64.97 95.33 C-63.7 91.94 -62.43 88.55 -61.16 85.15 C-58.87 79.04 -56.58 72.94 -54.29 66.83 C-53.04 63.5 -51.79 60.17 -50.54 56.84 C-50.05 55.54 -49.56 54.23 -49.07 52.93 C-48.83 52.29 -48.59 51.65 -48.35 50.99 C-42.11 34.35 -35.87 17.7 -29.62 1.06 C-19.74 0.46 -9.9 -0.1 0 0 Z " fill="#FDFEFF" transform="translate(511.625,192.9375)"/>
<path d="M0 0 C8.01 0 15.45 0.17 23.31 1.19 C24.86 1.39 24.86 1.39 26.45 1.59 C56.24 5.65 90.34 12.73 117 27 C114.42 56.87 106.31 86.28 98 115 C89.82 114.42 81.79 113.23 73.7 111.9 C49.14 107.88 24.99 106.47 0 105 C0 70.35 0 35.7 0 0 Z " fill="#FEFEFF" transform="translate(355,380)"/>
<path d="M0 0 C0 42.24 0 84.48 0 128 C-10.6 128 -20.91 127.7 -31.44 126.88 C-32.24 126.81 -33.05 126.75 -33.88 126.69 C-47.13 125.64 -60.24 123.99 -73.38 121.94 C-74.21 121.81 -75.04 121.68 -75.9 121.54 C-78.27 121.17 -80.65 120.79 -83.02 120.4 C-84.06 120.24 -84.06 120.24 -85.12 120.06 C-89.82 119.28 -94.39 118.2 -99 117 C-94.22 89.71 -75.01 58.79 -57 38 C-56.29 37.18 -55.59 36.37 -54.86 35.53 C-52.61 32.98 -50.32 30.48 -48 28 C-46.84 26.75 -46.84 26.75 -45.66 25.46 C-34.62 13.9 -16.88 0 0 0 Z " fill="#FDFEFF" transform="translate(320,40)"/>
<path d="M0 0 C25 3.13 44.6 20.66 59.95 39.72 C74.04 57.86 84.53 78.67 93.69 99.62 C94.11 100.59 94.53 101.56 94.97 102.55 C96.75 106.71 98.22 110.52 99 115 C75.18 120.62 50.87 123.8 26.5 125.81 C25.36 125.91 25.36 125.91 24.2 126 C16.1 126.67 8.15 127 0 127 C0 85.09 0 43.18 0 0 Z " fill="#FEFEFF" transform="translate(356,41)"/>
<path d="M0 0 C22.64 0 22.64 0 30.62 0.62 C31.65 0.7 32.68 0.78 33.75 0.86 C51.26 2.37 68.64 5.31 86 8 C85.54 9.42 85.07 10.84 84.61 12.26 C84.35 13.06 84.09 13.85 83.82 14.66 C82.62 18.09 81.04 21.28 79.38 24.5 C79.03 25.18 78.68 25.86 78.32 26.56 C77.59 27.99 76.85 29.41 76.11 30.84 C75.02 32.97 73.94 35.11 72.86 37.25 C63.68 55.32 51.78 71.16 38 86 C37.41 86.64 36.83 87.28 36.23 87.94 C26.33 98.34 14.25 105.42 0 107 C0 71.69 0 36.38 0 0 Z " fill="#FDFEFF" transform="translate(355,521)"/>
<path d="M0 0 C-1.25 2.62 -2.59 4.94 -4.33 7.27 C-21.23 30.26 -36.1 56.13 -44.77 83.43 C-45.5 85.62 -45.5 85.62 -47 89 C-50.55 90.68 -53.21 89.53 -56.79 88.3 C-57.94 87.9 -59.1 87.5 -60.3 87.09 C-61.54 86.65 -62.78 86.21 -64.06 85.75 C-65.35 85.3 -66.64 84.85 -67.93 84.39 C-77.1 81.15 -86.17 77.65 -95.19 74 C-96.34 73.53 -97.5 73.06 -98.69 72.58 C-106.74 69.26 -106.74 69.26 -109 67 C-84.49 44.51 -35.16 0 0 0 Z " fill="#FDFEFF" transform="translate(234,58)"/>
<path d="M0 0 C6.36 1.99 12.43 4.37 18.5 7.12 C19.37 7.52 20.24 7.91 21.13 8.32 C52.55 22.76 80.67 42.53 106 66 C93.54 76.26 73.95 80.66 59 86 C58.12 86.32 57.23 86.64 56.32 86.96 C55.53 87.24 54.75 87.51 53.93 87.8 C53.26 88.03 52.59 88.27 51.9 88.51 C50 89 50 89 46 89 C45.6 87.79 45.2 86.58 44.79 85.33 C34.33 54.29 19.1 26.54 0 0 Z " fill="#FDFEFF" transform="translate(443,58)"/>
<path d="M0 0 C21.12 0 42.24 0 64 0 C62.47 6.9 61.08 11.8 58.12 17.94 C57.74 18.75 57.35 19.56 56.95 20.4 C50.84 32.79 42.82 44.38 34 55 C20.47 49.02 12.12 31.83 6 19.19 C5.63 18.42 5.25 17.66 4.87 16.87 C2.17 11.08 1.31 6.57 0 0 Z " fill="#3489FF" transform="translate(168,416)"/>
<path d="M0 0 C2.06 2.06 2.6 3.19 3.58 5.86 C3.88 6.65 4.18 7.45 4.49 8.27 C4.96 9.57 4.96 9.57 5.45 10.9 C5.78 11.8 6.12 12.71 6.47 13.64 C7.18 15.57 7.89 17.49 8.6 19.42 C9.66 22.3 10.73 25.18 11.79 28.05 C12.49 29.94 13.19 31.83 13.89 33.71 C14.19 34.54 14.5 35.37 14.82 36.23 C18.33 45.78 21.64 55.39 25 65 C9.16 65 -6.68 65 -23 65 C-19.62 52.62 -19.62 52.62 -17.93 48.01 C-17.55 46.98 -17.18 45.94 -16.79 44.88 C-16.19 43.27 -16.19 43.27 -15.59 41.62 C-15.17 40.49 -14.76 39.35 -14.33 38.19 C-13.46 35.81 -12.59 33.44 -11.71 31.06 C-10.37 27.42 -9.03 23.77 -7.7 20.12 C-6.85 17.81 -6 15.5 -5.15 13.18 C-4.75 12.09 -4.35 11 -3.93 9.87 C-3.56 8.87 -3.19 7.86 -2.81 6.83 C-2.32 5.5 -2.32 5.5 -1.82 4.14 C-1 2 -1 2 0 0 Z " fill="#3589FF" transform="translate(501,229)"/>
<path d="M0 0 C0.66 0.33 1.32 0.66 2 1 C0.69 4.29 -0.62 7.58 -1.94 10.88 C-2.31 11.81 -2.68 12.75 -3.07 13.71 C-3.43 14.61 -3.78 15.51 -4.15 16.43 C-4.48 17.26 -4.81 18.08 -5.15 18.94 C-6 21 -6 21 -7 23 C-9 23 -9 23 -10.66 21.39 C-11.57 20.33 -11.57 20.33 -12.5 19.25 C-13.11 18.55 -13.72 17.86 -14.34 17.14 C-15.89 15.15 -16.91 13.26 -18 11 C-17.24 10.55 -17.24 10.55 -16.46 10.1 C-14.16 8.75 -11.86 7.41 -9.56 6.06 C-8.76 5.59 -7.96 5.13 -7.13 4.64 C-6.37 4.19 -5.6 3.75 -4.82 3.29 C-3.76 2.66 -3.76 2.66 -2.67 2.03 C-1.03 1.11 -1.03 1.11 0 0 Z " fill="#3A8AFF" transform="translate(587,455)"/>
<path d="M0 0 C0.33 0 0.66 0 1 0 C1.29 8.57 1.29 8.57 -1 12 C-2.37 7.48 -1.47 4.41 0 0 Z " fill="#4D94FF" transform="translate(668,381)"/>
<path d="M0 0 C0.33 0.66 0.66 1.32 1 2 C-0.98 4.31 -2.96 6.62 -5 9 C-5.33 8.01 -5.66 7.02 -6 6 C-4.02 4.02 -2.04 2.04 0 0 Z " fill="#418DFF" transform="translate(551,559)"/>
<path d="M0 0 C1.32 0 2.64 0 4 0 C3.34 2.97 2.68 5.94 2 9 C1.67 9 1.34 9 1 9 C0.67 6.03 0.34 3.06 0 0 Z " fill="#428EFF" transform="translate(228,416)"/>
</svg>
